<svg width="45" height="44" viewBox="0 0 45 44" fill="none" xmlns="http://www.w3.org/2000/svg">
<path d="M44.8503 16.6975C44.4898 15.5884 43.5336 14.785 42.3814 14.6167L30.7133 12.9212L25.4947 2.35608C24.4649 0.266397 21.0463 0.266397 20.0164 2.35608L14.7978 12.9212L3.15689 14.6167C2.00517 14.785 1.04893 15.5912 0.691275 16.6975C0.330806 17.8065 0.633152 19.0197 1.46753 19.8292L9.90642 28.0328L7.91751 39.6433C7.72204 40.7889 8.19267 41.95 9.13345 42.6343C10.0775 43.3154 11.3272 43.4045 12.3538 42.8636L22.7544 37.3792L33.1855 42.8636C33.6317 43.0989 34.1206 43.2151 34.6062 43.2151C35.2386 43.2151 35.8709 43.0197 36.4091 42.6348C37.3503 41.9472 37.8205 40.7894 37.625 39.6437L35.6361 28.0333L44.075 19.8297C44.9084 19.0225 45.2108 17.8033 44.8503 16.6975ZM30.215 24.7726C29.4941 25.4753 29.1608 26.4869 29.3319 27.4797L30.5478 34.5742L24.1714 31.2226C23.7284 30.9873 23.2395 30.8711 22.7506 30.8711C22.2617 30.8711 21.7728 30.9873 21.3298 31.2226L14.9872 34.5653L16.2031 27.4801C16.3742 26.4873 16.0414 25.4729 15.32 24.7731L10.175 19.7715L17.2663 18.7389C18.2591 18.5955 19.1178 17.9687 19.5641 17.0678L22.7506 10.6117L25.9372 17.0678C26.3834 17.972 27.2417 18.5955 28.2378 18.7389L35.3567 19.7748L30.215 24.7726Z" fill="black"/>
</svg>
