<svg width="45" height="44" viewBox="0 0 45 44" fill="none" xmlns="http://www.w3.org/2000/svg">
<path d="M44.3084 16.6976C43.9479 15.5885 42.9917 14.7851 41.8395 14.6168L30.1713 12.9209L24.9527 2.35572C23.9229 0.26603 20.5043 0.26603 19.4745 2.35572L14.2559 12.9209L2.6154 14.6168C1.46368 14.7846 0.507428 15.5913 0.149771 16.6976C-0.210697 17.8067 0.0916464 19.0198 0.926022 19.8293L9.36493 28.0329L7.37602 39.6434C7.18055 40.789 7.65118 41.9501 8.59196 42.6345C9.53602 43.316 10.7824 43.4046 11.8123 42.8637L22.2124 37.3793L32.6435 42.8637C33.0898 43.099 33.5787 43.2153 34.0643 43.2153C34.6966 43.2153 35.329 43.0198 35.8671 42.6349C36.8084 41.9473 37.2785 40.7895 37.0831 39.6439L35.0942 28.0334L43.5331 19.8298C44.3665 19.0226 44.6688 17.8039 44.3084 16.6976Z" fill="black"/>
</svg>
